PathFileType	4	(X/Y/Z)	14_coords_data.trc
DataRate	CameraRate	NumFrames	NumMarkers	Units	OrigDataRate	OrigDataStartFrame	OrigNumFrames
30.0	30.0	9	21	m	30.0	1	65
Frame#	Time	THUMB_TIP	THUMB_IP	THUMB_MCP	THUMB_CMC	INDEX_TIP	INDEX_DIP	INDEX_PIP	INDEX_MCP	MIDDLE_TIP	MIDDLE_DIP	MIDDLE_PIP	MIDDLE_MCP	RING_TIP	RING_DIP	RING_PIP	RING_MCP	PINKY_TIP	PINKY_DIP	PINKY_PIP	PINKY_MCP	WRIST
X1	Y1	Z1	X2	Y2	Z2	X3	Y3	Z3	X4	Y4	Z4	X5	Y5	Z5	X6	Y6	Z6	X7	Y7	Z7	X8	Y8	Z8	X9	Y9	Z9	X10	Y10	Z10	X11	Y11	Z11	X12	Y12	Z12	X13	Y13	Z13	X14	Y14	Z14	X15	Y15	Z15	X16	Y16	Z16	X17	Y17	Z17	X18	Y18	Z18	X19	Y19	Z19	X20	Y20	Z20	X21	Y21	Z21
0	0.0	-0.016072900772094726	-0.04917250061035156	0.9682880249023438	-0.01468179988861084	-0.028603399276733398	0.98643798828125	-0.020178699493408205	-0.014482600212097168	1.0116400146484374	-0.023163299560546875	0.01602799987792969	1.0302900390625	-0.008705989837646484	0.009106889724731445	0.9990390014648437	0.006531390190124511	0.012498900413513184	0.9879660034179687	0.006097509860992432	0.01358530044555664	0.9642869873046875	-0.03072999954223633	0.00767779016494751	0.9720640258789063	-0.008286569595336914	0.022995399475097655	1.0073900146484376	0.004458290100097656	0.029532400131225586	0.9983939819335937	0.008761030197143554	0.03544839859008789	0.9723170166015624	-0.03220050048828125	0.03216910171508789	0.9684509887695313	-0.015687100410461424	0.03709109878540039	1.0149600219726562	-0.001221359968185424	0.04522539901733398	1.0061199951171875	0.004589009761810303	0.05452249908447265	0.9840650024414063	-0.033716899871826175	0.05306940078735352	0.9767360229492188	-0.018718399047851563	0.050959800720214846	1.0198499755859376	-0.005645750045776367	0.058945201873779295	1.012719970703125	-0.0035972199440002443	0.06795989990234375	0.9971900024414062	-0.033216899871826175	0.06904740142822266	0.9890130004882812	-0.046417499542236326	0.03816899871826172	1.043969970703125
1	0.03333333333333333	-0.015969799995422362	-0.05056340026855469	0.9701959838867188	-0.014258099555969237	-0.029479900360107423	0.9875399780273437	-0.019405099868774416	-0.014737500190734863	1.0120900268554687	-0.022820199966430664	0.01613479995727539	1.0309200439453126	-0.00958316993713379	0.008676389694213867	0.9999979858398438	0.006121620178222657	0.0122431001663208	0.989197021484375	0.006470270156860352	0.01319789981842041	0.9658179931640625	-0.03038039970397949	0.00690008020401001	0.972655029296875	-0.008642539978027344	0.02301729965209961	1.00775	0.0037174999713897702	0.029441999435424804	0.9994739990234375	0.008676969528198242	0.03512639999389648	0.9734940185546875	-0.032008598327636716	0.03126460075378418	0.9686710205078125	-0.01601110076904297	0.0370885009765625	1.0151400146484375	-0.001822149991989135	0.04525320053100586	1.006739990234375	0.004115709781646728	0.05424509811401367	0.9847050170898437	-0.033870098114013675	0.05226070022583008	0.9766510009765625	-0.019502199172973633	0.05118040084838867	1.0198699951171875	-0.0064001398086547855	0.05903710174560547	1.0130499877929688	-0.004265200138092041	0.06780010223388672	0.997197998046875	-0.03374530029296875	0.06846309661865234	0.988739990234375	-0.04648139953613281	0.03820999908447266	1.04431005859375
2	0.06666666666666667	-0.015066300392150879	-0.05271780014038086	0.9730020141601563	-0.01356089973449707	-0.03114139938354492	0.9896110229492188	-0.018879100799560546	-0.015499699592590331	1.0134400024414063	-0.022461999893188478	0.015971799850463868	1.03152001953125	-0.010256799697875976	0.007917699813842773	1.0008699951171875	0.005613369941711426	0.011581199645996094	0.9904149780273438	0.006371439933776856	0.012338899612426757	0.9670989990234375	-0.03042930030822754	0.0056866598129272465	0.9733090209960937	-0.008952770233154297	0.02275	1.00827001953125	0.003090970039367676	0.02899250030517578	1.0000800170898438	0.008236319541931152	0.034268901824951174	0.9742379760742188	-0.032427101135253905	0.029981800079345703	0.9690449829101563	-0.016727699279785156	0.036889301300048825	1.0155	-0.00233213996887207	0.04490349960327149	1.0070900268554688	0.003617350101470947	0.053523700714111326	0.984844970703125	-0.03426129913330078	0.0511416015625	0.9765269775390625	-0.020139299392700195	0.051069801330566406	1.0198300170898438	-0.0068816299438476565	0.058795398712158206	1.0129400024414061	-0.004845190048217774	0.06727610015869141	0.9967789916992188	-0.03420690155029297	0.06761239624023438	0.9884249877929687	-0.04616949844360352	0.03822209930419922	1.04475
3	0.1	-0.016692800521850584	-0.05431589889526367	0.9742739868164062	-0.014659099578857422	-0.03247560119628906	0.9905170288085937	-0.019414899826049804	-0.016361099243164062	1.0140800170898439	-0.02253969955444336	0.015314599990844727	1.031800048828125	-0.011629500389099122	0.007100339889526367	1.00075	0.004702040195465088	0.010744600296020508	0.9910089721679688	0.006058010101318359	0.011418000221252441	0.9677839965820313	-0.03078660011291504	0.004941349983215332	0.9737830200195312	-0.009011719703674316	0.022287700653076174	1.0087000122070313	0.002689939975738525	0.02823040008544922	1.00052001953125	0.008001029968261719	0.03335380172729492	0.9747319946289063	-0.032782398223876956	0.029206100463867186	0.969302001953125	-0.016732200622558594	0.036411998748779296	1.015739990234375	-0.002484319925308227	0.04426449966430664	1.007219970703125	0.003556960105895996	0.05269810104370117	0.9849229736328124	-0.034454399108886716	0.05040420150756836	0.9766480102539062	-0.020246000289916993	0.0507155990600586	1.01997998046875	-0.006874599933624268	0.05819110107421875	1.012760009765625	-0.004717440128326416	0.06648490142822265	0.9970059814453125	-0.03415900039672851	0.06693399810791016	0.9884530029296875	-0.04594969940185547	0.03789039993286133	1.0448800048828124
4	0.13333333333333333	-0.01793530082702637	-0.05557300186157227	0.9752150268554688	-0.0155221004486084	-0.0335161018371582	0.9913800048828125	-0.01987980079650879	-0.01696549987792969	1.014510009765625	-0.022767799377441406	0.014954500198364258	1.031800048828125	-0.011769599914550781	0.006627540111541748	1.0006500244140626	0.0045036602020263675	0.010252300262451173	0.991197998046875	0.006124139785766602	0.010929200172424316	0.9681749877929687	-0.03086199951171875	0.004542520046234131	0.9739910278320313	-0.009239139556884766	0.02178310012817383	1.0085599975585937	0.002364429950714111	0.027769100189208983	1.0006300048828125	0.008033860206604003	0.03282949829101563	0.9747780151367188	-0.03274819946289063	0.02884320068359375	0.9693209838867187	-0.016790199279785156	0.0361078987121582	1.0155999755859375	-0.002571140050888061	0.04386370086669922	1.0071400146484375	0.003611910104751587	0.05220119857788086	0.9848820190429688	-0.03436460113525391	0.049989898681640624	0.976583984375	-0.020194499969482423	0.050527599334716795	1.020010009765625	-0.006893340110778808	0.05781150054931641	1.0129299926757813	-0.004662970066070557	0.06603060150146485	0.9968309936523437	-0.03398379898071289	0.0665425033569336	0.988281005859375	-0.04586309814453125	0.037726600646972655	1.0451199951171875
5	0.16666666666666666	-0.018728900909423828	-0.05676490020751953	0.976416015625	-0.015952099800109865	-0.03442060089111328	0.9918770141601563	-0.020036399841308592	-0.017303699493408202	1.0149600219726562	-0.02269420051574707	0.015019800186157227	1.0318900146484375	-0.01200380039215088	0.006358590126037598	1.0008699951171875	0.0042943902015686024	0.009988490104675294	0.991218017578125	0.0058246002197265626	0.010593799591064454	0.9680369873046875	-0.03111109924316406	0.004177499771118164	0.97381201171875	-0.009171870231628418	0.021746700286865234	1.008280029296875	0.002213109970092773	0.027603200912475586	1.0002100219726562	0.007729660034179688	0.03253770065307617	0.9744439697265626	-0.03312860107421875	0.02838479995727539	0.9691959838867188	-0.016778900146484376	0.03604869842529297	1.0150999755859376	-0.00270428991317749	0.04376509857177734	1.0066199951171875	0.003303430080413818	0.05195560073852539	0.9842410278320313	-0.034666698455810545	0.04962429809570312	0.9762880249023438	-0.02031450080871582	0.05050650024414063	1.0194400024414063	-0.006924520015716553	0.0576598014831543	1.01225	-0.004720359802246094	0.06578600311279297	0.9962680053710937	-0.03420690155029297	0.06627469635009765	0.9880079956054687	-0.04601160049438477	0.03779520034790039	1.0450899658203125
6	0.2	-0.02053569984436035	-0.05736000061035156	0.9767379760742188	-0.016984899520874022	-0.03488869857788086	0.9920830078125	-0.02056329917907715	-0.017566900253295898	1.01472998046875	-0.022830900192260743	0.01478969955444336	1.03168994140625	-0.012007200241088867	0.006276309967041016	1.0006599731445311	0.003904269933700561	0.009876150131225586	0.9907869873046875	0.0058649201393127445	0.010535499572753907	0.967719970703125	-0.03105069923400879	0.004198009967803955	0.9736929931640625	-0.009310810089111329	0.021606199264526366	1.008010009765625	0.002311239957809448	0.027568700790405274	1.0000499877929687	0.007830399990081787	0.03247380065917969	0.9742550048828125	-0.03295370101928711	0.02847249984741211	0.968969970703125	-0.016875499725341796	0.03600410079956055	1.0150900268554688	-0.002629250049591064	0.043676799774169925	1.0065599975585937	0.003492269992828369	0.05187080001831055	0.984197021484375	-0.03445840072631836	0.049658798217773435	0.9761190185546875	-0.02032859992980957	0.050373100280761716	1.019280029296875	-0.006862559795379639	0.05754899978637695	1.0122899780273438	-0.004356420040130616	0.0656697998046875	0.99622802734375	-0.033907600402832035	0.06626450347900391	0.9878839721679687	-0.04585900115966797	0.0377333984375	1.0446600341796874
7	0.23333333333333334	-0.02194610023498535	-0.057551998138427735	0.9765390014648437	-0.01785260009765625	-0.035057201385498046	0.9916959838867188	-0.02086039924621582	-0.01775200080871582	1.014530029296875	-0.022831300735473632	0.014566499710083008	1.0315699462890624	-0.011757900238037109	0.0059818501472473145	1.0002100219726562	0.004447159767150879	0.009689820289611817	0.9910469970703125	0.006313859939575195	0.010475399971008301	0.9678690185546875	-0.030697900772094725	0.004158850193023682	0.973468017578125	-0.008810219764709472	0.02144309997558594	1.008010009765625	0.002549410104751587	0.02725429916381836	1.00027001953125	0.00827161979675293	0.03236380004882813	0.9746079711914063	-0.03247760009765625	0.028512300491333006	0.9689169921875	-0.016601600646972657	0.0357223014831543	1.0151400146484375	-0.002414870023727417	0.04339089965820313	1.0068900146484374	0.004041989803314209	0.05167610168457031	0.984666015625	-0.033822601318359374	0.04967710113525391	0.976166015625	-0.020168100357055664	0.05019900131225586	1.0196500244140625	-0.006721189975738525	0.05721120071411133	1.01277001953125	-0.003997030019760131	0.06537380218505859	0.99685302734375	-0.03328120040893555	0.06619110107421874	0.98797802734375	-0.04590589904785156	0.03764099884033203	1.0447900390625
8	0.26666666666666666	-0.022293800354003905	-0.05766880035400391	0.9764140014648437	-0.017861799240112306	-0.03518310165405274	0.9915479736328126	-0.020672300338745116	-0.017918399810791016	1.014260009765625	-0.022558000564575194	0.014327099800109863	1.0314200439453125	-0.011342499732971191	0.00600324010848999	1.0006400146484375	0.004751060009002685	0.009691410064697266	0.9911420288085937	0.006814459800720215	0.010575400352478028	0.967927978515625	-0.030215499877929687	0.004061820030212403	0.9734249877929687	-0.008524840354919433	0.021358299255371093	1.008010009765625	0.002834330081939697	0.027263399124145507	1.0004000244140625	0.008686770439147949	0.032392398834228515	0.9746929931640625	-0.031992700576782225	0.028443399429321288	0.9688610229492187	-0.016362100601196288	0.03563370132446289	1.0151900024414062	-0.00212768006324768	0.043279300689697264	1.0070999755859376	0.004334169864654541	0.051654499053955076	0.984875	-0.03340579986572265	0.049548198699951175	0.9761710205078125	-0.02007460021972656	0.04991260147094727	1.0195800170898437	-0.006515220165252684	0.05705039978027344	1.013	-0.003688460111618042	0.0652427978515625	0.997177978515625	-0.0328916015625	0.06599839782714843	0.9881110229492187	-0.04580350112915039	0.037474700927734375	1.0447099609375
